<svg xmlns="http://www.w3.org/2000/svg" width="151" height="37" fill="none" viewBox="0 0 151 37">
  <rect width="151" height="37" fill="#2F2F45" rx="5"/>
  <path fill="#92929D" d="M27.674 13.818v6.428c0 1.164-.815 2.004-2.068 2.004-1.248 0-2.068-.84-2.068-2.004v-6.428h-2.153v6.612c0 2.228 1.68 3.714 4.22 3.714 2.531 0 4.222-1.486 4.222-3.714v-6.612h-2.153zm3.884 13.046h2.118v-4.087h.065c.293.636.934 1.347 2.167 1.347 1.74 0 3.097-1.377 3.097-3.932 0-2.625-1.416-3.928-3.092-3.928-1.277 0-1.889.76-2.172 1.382h-.095v-1.282h-2.088v10.5zm2.073-6.682c0-1.362.577-2.232 1.606-2.232 1.049 0 1.606.91 1.606 2.232 0 1.332-.567 2.257-1.606 2.257-1.02 0-1.606-.895-1.606-2.257zm9.6 3.942c1.233 0 1.875-.71 2.168-1.347h.09V24h2.088V13.818h-2.113v3.828h-.065c-.283-.621-.895-1.382-2.173-1.382-1.675 0-3.092 1.303-3.092 3.928 0 2.555 1.357 3.932 3.097 3.932zm.672-1.685c-1.04 0-1.606-.925-1.606-2.257 0-1.323.556-2.232 1.606-2.232 1.029 0 1.605.87 1.605 2.232s-.586 2.257-1.605 2.257zm7.592 1.705c1.129 0 1.86-.492 2.233-1.203h.06V24h2.008v-5.15c0-1.82-1.541-2.586-3.242-2.586-1.83 0-3.032.875-3.326 2.267l1.96.16c.143-.508.596-.88 1.356-.88.721 0 1.134.362 1.134.989v.03c0 .492-.522.556-1.85.686-1.51.139-2.868.646-2.868 2.351 0 1.512 1.079 2.277 2.535 2.277zm.607-1.461c-.651 0-1.119-.304-1.119-.885 0-.597.492-.89 1.238-.995.463-.064 1.218-.174 1.472-.343v.81c0 .801-.661 1.413-1.591 1.413zm9.399-6.32h-1.437v-1.829h-2.118v1.83h-1.044v1.59h1.044v3.978c-.01 1.496 1.01 2.237 2.546 2.172a4.12 4.12 0 001.148-.198l-.333-1.576c-.105.02-.328.07-.527.07-.423 0-.716-.16-.716-.747v-3.698H61.5v-1.591zm4.777 7.786c1.89 0 3.162-.92 3.46-2.337l-1.958-.129c-.214.582-.76.885-1.467.885-1.059 0-1.73-.7-1.73-1.84v-.004h5.2v-.582c0-2.595-1.57-3.878-3.59-3.878-2.246 0-3.703 1.596-3.703 3.953 0 2.42 1.437 3.932 3.788 3.932zm-1.695-4.738c.045-.87.706-1.566 1.646-1.566.92 0 1.556.656 1.56 1.566h-3.206zm13.885-3.047H77.03v-1.83h-2.118v1.83h-1.044v1.59h1.044v3.978c-.01 1.496 1.01 2.237 2.545 2.172a4.12 4.12 0 001.149-.198l-.333-1.576c-.105.02-.329.07-.527.07-.423 0-.716-.16-.716-.747v-3.698h1.436v-1.591zm3.661 3.221c.005-.984.607-1.56 1.472-1.56.86 0 1.367.551 1.362 1.49V24h2.118v-4.862c.005-1.79-1.05-2.874-2.64-2.874-1.159 0-1.934.547-2.282 1.447h-.09v-3.893h-2.058V24h2.118v-4.415zm10.099 4.564c1.889 0 3.162-.92 3.46-2.337l-1.959-.129c-.214.582-.76.885-1.467.885-1.058 0-1.73-.7-1.73-1.84v-.004h5.2v-.582c0-2.595-1.57-3.878-3.589-3.878-2.247 0-3.704 1.596-3.704 3.953 0 2.42 1.437 3.932 3.789 3.932zm-1.696-4.738c.045-.87.706-1.566 1.646-1.566.92 0 1.556.656 1.561 1.566h-3.207zm12.637 4.713c1.233 0 1.874-.71 2.167-1.347h.09V24h2.088V13.818h-2.113v3.828h-.065c-.283-.621-.894-1.382-2.172-1.382-1.676 0-3.092 1.303-3.092 3.928 0 2.555 1.357 3.932 3.097 3.932zm.671-1.685c-1.039 0-1.606-.925-1.606-2.257 0-1.323.557-2.232 1.606-2.232 1.029 0 1.606.87 1.606 2.232s-.587 2.257-1.606 2.257zm7.593 1.705c1.128 0 1.859-.492 2.232-1.203h.06V24h2.008v-5.15c0-1.82-1.541-2.586-3.241-2.586-1.83 0-3.033.875-3.326 2.267l1.959.16c.144-.508.596-.88 1.357-.88.721 0 1.133.362 1.133.989v.03c0 .492-.522.556-1.849.686-1.511.139-2.869.646-2.869 2.351 0 1.512 1.079 2.277 2.536 2.277zm.606-1.461c-.651 0-1.118-.304-1.118-.885 0-.597.492-.89 1.238-.995.462-.064 1.218-.174 1.471-.343v.81c0 .801-.661 1.413-1.591 1.413zm9.399-6.32h-1.437v-1.829h-2.117v1.83h-1.045v1.59h1.045v3.978c-.01 1.496 1.009 2.237 2.545 2.172.547-.02.935-.129 1.148-.198l-.333-1.576c-.104.02-.328.07-.527.07-.422 0-.716-.16-.716-.747v-3.698h1.437v-1.591zm3.557 7.781c1.129 0 1.86-.492 2.233-1.203h.059V24h2.009v-5.15c0-1.82-1.541-2.586-3.242-2.586-1.829 0-3.032.875-3.326 2.267l1.959.16c.144-.508.597-.88 1.357-.88.721 0 1.134.362 1.134.989v.03c0 .492-.522.556-1.85.686-1.511.139-2.868.646-2.868 2.351 0 1.512 1.079 2.277 2.535 2.277zm.607-1.461c-.651 0-1.119-.304-1.119-.885 0-.597.492-.89 1.238-.995.463-.064 1.218-.174 1.472-.343v.81c0 .801-.661 1.413-1.591 1.413z"/>
</svg>
