<svg width="427" height="59" viewBox="0 0 427 59" fill="none" xmlns="http://www.w3.org/2000/svg">
<path fill-rule="evenodd" clip-rule="evenodd" d="M0.362076 10.1724C0.362076 4.55434 4.91642 0 10.5345 0H49.1897C54.8077 0 59.3621 4.55435 59.3621 10.1724V48.8276C59.3621 54.4457 54.8077 59 49.1897 59H34.4061C40.3096 58.1847 44.8561 53.1121 44.8561 46.9762C44.8561 40.2724 39.4292 34.838 32.7347 34.838C29.3902 34.838 26.3621 36.1944 24.1689 38.3878L28.9307 43.1562C29.9052 42.1831 31.2498 41.5814 32.7347 41.5814C35.71 41.5814 38.122 43.9968 38.122 46.9762C38.122 49.9557 35.71 52.371 32.7347 52.371C31.2443 52.371 29.8953 51.7649 28.92 50.7855L28.914 50.7915L16.5555 38.4159L16.5729 38.3985C14.3789 36.1988 11.3463 34.838 7.99639 34.838C5.10286 34.838 2.44614 35.8532 0.362076 37.5474V10.1724ZM16.5442 55.5825L20.0286 58.9999H10.4957L10.5345 59H31.0633C28.4283 58.6361 26.0637 57.424 24.253 55.6479L24.2465 55.6543L11.6762 43.0665L11.6919 43.0508C10.7273 42.1398 9.42694 41.5814 7.99639 41.5814C5.02107 41.5814 2.60909 43.9968 2.60909 46.9762C2.60909 49.9557 5.02107 52.371 7.99639 52.371C9.48132 52.371 10.8259 51.7694 11.8004 50.7963L16.5622 55.5646C16.5562 55.5706 16.5502 55.5766 16.5442 55.5825Z" fill="#242731"/>
<path d="M86.441 17.7063C89.9566 17.7063 92.7642 18.7195 94.8638 20.7459L91.6412 23.9319C90.4449 22.7356 88.6627 22.1374 86.2946 22.1374C85.0006 22.1374 83.9997 22.4548 83.2917 23.0896C82.6081 23.6999 82.2663 24.4812 82.2663 25.4333C82.2663 26.1901 82.5226 26.8127 83.0353 27.301C83.5968 27.8137 84.3903 28.1432 85.4157 28.2897L88.5284 28.7658C90.7501 29.0832 92.4102 29.7668 93.5088 30.8166C94.8516 32.0861 95.523 33.9171 95.523 36.3097C95.523 38.7754 94.6197 40.7163 92.813 42.1323C91.0064 43.5239 88.6871 44.2197 85.8551 44.2197C83.7799 44.2197 81.9855 43.9634 80.4719 43.4507C78.9582 42.9136 77.5788 42.0225 76.3337 40.7774L79.6296 37.4815C81.0944 38.9463 83.1818 39.6788 85.8917 39.6788C87.4054 39.6788 88.5528 39.398 89.3341 38.8365C90.1397 38.275 90.5426 37.4693 90.5426 36.4195C90.5426 35.5162 90.274 34.796 89.7369 34.2589C89.273 33.8439 88.4918 33.5509 87.3932 33.38L84.2804 32.9039C82.0588 32.5621 80.3742 31.8419 79.2268 30.7433C77.9817 29.5226 77.3591 27.8137 77.3591 25.6164C77.3591 23.2483 78.177 21.344 79.8127 19.9036C81.4484 18.4388 83.6579 17.7063 86.441 17.7063ZM116.836 17.9261V22.467H110.024V44H104.934V22.467H98.1225V17.9261H116.836ZM138.159 17.9261V22.467H126.075V28.5827H136.402V33.1237H126.075V39.459H138.159V44H120.984V17.9261H138.159ZM153.777 17.9261L163.298 44H157.952L156.414 39.3858H147.185L145.611 44H140.264L149.785 17.9261H153.777ZM151.8 25.653L148.577 35.1012H154.986L151.8 25.653ZM190.094 17.9261V44H185.004V28.839L180.024 38.1041H176.581L171.564 28.839V44H166.474V17.9261H171.491L178.303 31.4391L185.077 17.9261H190.094ZM213.421 17.7063C215.935 17.7063 218.047 18.4143 219.756 19.8303C221.465 21.2463 222.539 23.2849 222.979 25.946H217.815C217.229 23.4802 215.764 22.2473 213.421 22.2473C212.029 22.2473 210.943 22.699 210.161 23.6023C209.673 24.1638 209.331 24.9328 209.136 25.9094C208.965 26.8615 208.88 28.5461 208.88 30.963C208.88 33.38 208.965 35.0768 209.136 36.0533C209.331 37.0054 209.673 37.7623 210.161 38.3238C210.943 39.2271 212.029 39.6788 213.421 39.6788C215.764 39.6788 217.229 38.4459 217.815 35.9801H222.979C222.539 38.6412 221.465 40.6797 219.756 42.0957C218.047 43.5117 215.935 44.2197 213.421 44.2197C210.638 44.2197 208.306 43.3042 206.426 41.4732C205.23 40.2769 204.485 38.9708 204.192 37.5548C203.924 36.1143 203.789 33.9171 203.789 30.963C203.789 28.009 203.924 25.8239 204.192 24.4079C204.485 22.9675 205.23 21.6492 206.426 20.4529C208.306 18.6219 210.638 17.7063 213.421 17.7063ZM229.135 20.4529C231.015 18.6219 233.347 17.7063 236.13 17.7063C238.913 17.7063 241.245 18.6219 243.124 20.4529C244.321 21.6248 245.053 22.9309 245.322 24.3713C245.615 25.8117 245.761 28.009 245.761 30.963C245.761 33.9171 245.615 36.1143 245.322 37.5548C245.053 38.9952 244.321 40.3013 243.124 41.4732C241.245 43.3042 238.913 44.2197 236.13 44.2197C233.347 44.2197 231.015 43.3042 229.135 41.4732C227.939 40.2769 227.194 38.9708 226.901 37.5548C226.633 36.1143 226.499 33.9171 226.499 30.963C226.499 28.009 226.633 25.8239 226.901 24.4079C227.194 22.9675 227.939 21.6492 229.135 20.4529ZM239.389 23.6389C238.583 22.7112 237.497 22.2473 236.13 22.2473C234.763 22.2473 233.676 22.7112 232.871 23.6389C232.358 24.2004 232.016 24.9572 231.845 25.9094C231.674 26.8371 231.589 28.5217 231.589 30.963C231.589 33.38 231.674 35.0646 231.845 36.0167C232.016 36.9444 232.358 37.689 232.871 38.2506C233.701 39.2027 234.787 39.6788 236.13 39.6788C237.473 39.6788 238.559 39.2027 239.389 38.2506C239.902 37.689 240.244 36.9444 240.414 36.0167C240.585 35.0646 240.671 33.38 240.671 30.963C240.671 28.5217 240.585 26.8371 240.414 25.9094C240.244 24.9572 239.902 24.2004 239.389 23.6389ZM270.903 17.9261V44H266.399L256.035 28.07V44H250.945V17.9261H255.486L265.813 33.8561V17.9261H270.903ZM296.974 17.9261V44H292.47L282.106 28.07V44H277.016V17.9261H281.557L291.884 33.8561V17.9261H296.974ZM320.262 17.9261V22.467H308.177V28.5827H318.504V33.1237H308.177V39.459H320.262V44H303.086V17.9261H320.262ZM334.011 17.7063C336.526 17.7063 338.638 18.4143 340.347 19.8303C342.056 21.2463 343.13 23.2849 343.569 25.946H338.406C337.82 23.4802 336.355 22.2473 334.011 22.2473C332.62 22.2473 331.533 22.699 330.752 23.6023C330.264 24.1638 329.922 24.9328 329.727 25.9094C329.556 26.8615 329.471 28.5461 329.471 30.963C329.471 33.38 329.556 35.0768 329.727 36.0533C329.922 37.0054 330.264 37.7623 330.752 38.3238C331.533 39.2271 332.62 39.6788 334.011 39.6788C336.355 39.6788 337.82 38.4459 338.406 35.9801H343.569C343.13 38.6412 342.056 40.6797 340.347 42.0957C338.638 43.5117 336.526 44.2197 334.011 44.2197C331.228 44.2197 328.897 43.3042 327.017 41.4732C325.821 40.2769 325.076 38.9708 324.783 37.5548C324.515 36.1143 324.38 33.9171 324.38 30.963C324.38 28.009 324.515 25.8239 324.783 24.4079C325.076 22.9675 325.821 21.6492 327.017 20.4529C328.897 18.6219 331.228 17.7063 334.011 17.7063ZM364.276 17.9261V22.467H357.464V44H352.374V22.467H345.562V17.9261H364.276ZM373.515 17.9261V44H368.424V17.9261H373.515ZM381.376 20.4529C383.256 18.6219 385.587 17.7063 388.37 17.7063C391.153 17.7063 393.485 18.6219 395.365 20.4529C396.561 21.6248 397.294 22.9309 397.562 24.3713C397.855 25.8117 398.002 28.009 398.002 30.963C398.002 33.9171 397.855 36.1143 397.562 37.5548C397.294 38.9952 396.561 40.3013 395.365 41.4732C393.485 43.3042 391.153 44.2197 388.37 44.2197C385.587 44.2197 383.256 43.3042 381.376 41.4732C380.179 40.2769 379.435 38.9708 379.142 37.5548C378.873 36.1143 378.739 33.9171 378.739 30.963C378.739 28.009 378.873 25.8239 379.142 24.4079C379.435 22.9675 380.179 21.6492 381.376 20.4529ZM391.63 23.6389C390.824 22.7112 389.737 22.2473 388.37 22.2473C387.003 22.2473 385.917 22.7112 385.111 23.6389C384.598 24.2004 384.257 24.9572 384.086 25.9094C383.915 26.8371 383.829 28.5217 383.829 30.963C383.829 33.38 383.915 35.0646 384.086 36.0167C384.257 36.9444 384.598 37.689 385.111 38.2506C385.941 39.2027 387.028 39.6788 388.37 39.6788C389.713 39.6788 390.799 39.2027 391.63 38.2506C392.142 37.689 392.484 36.9444 392.655 36.0167C392.826 35.0646 392.911 33.38 392.911 30.963C392.911 28.5217 392.826 26.8371 392.655 25.9094C392.484 24.9572 392.142 24.2004 391.63 23.6389ZM423.144 17.9261V44H418.639L408.276 28.07V44H403.185V17.9261H407.726L418.053 33.8561V17.9261H423.144Z" fill="#242731"/>
</svg>
