<svg width="151" height="37" viewBox="0 0 151 37" fill="none" xmlns="http://www.w3.org/2000/svg">
<rect width="151" height="37" rx="5" fill="#2F2F45"/>
<path d="M22.7415 18.9091C22.7415 15.5781 20.6733 13.679 17.9737 13.679C15.2592 13.679 13.206 15.5781 13.206 18.9091C13.206 22.2251 15.2592 24.1392 17.9737 24.1392C20.6733 24.1392 22.7415 22.2401 22.7415 18.9091ZM20.5589 18.9091C20.5589 21.0668 19.5348 22.2351 17.9737 22.2351C16.4077 22.2351 15.3885 21.0668 15.3885 18.9091C15.3885 16.7514 16.4077 15.5831 17.9737 15.5831C19.5348 15.5831 20.5589 16.7514 20.5589 18.9091ZM30.6451 13.5597C30.2722 13.8232 29.6756 13.8182 28.8603 13.8182C28.6664 13.8182 28.4625 13.8132 28.2438 13.8182C25.4647 13.843 24.013 15.5831 24.013 19.2621V19.8885C24.013 22.6626 25.4448 24.1491 27.7566 24.1491C30.0634 24.1491 31.4902 22.6626 31.4902 20.331C31.4902 18.0938 30.1827 16.7564 28.2338 16.7564C27.0059 16.7564 26.1806 17.2884 25.7232 18.223H25.6486C25.8276 16.3487 26.5435 15.5781 28.3134 15.5582C29.8794 15.5334 30.6401 15.4787 31.2914 14.9418L30.6451 13.5597ZM27.7665 22.5085C26.7672 22.5085 26.1657 21.7031 26.1657 20.4006C26.1756 19.098 26.7722 18.3622 27.7566 18.3622C28.736 18.3622 29.3375 19.098 29.3375 20.4006C29.3375 21.7081 28.736 22.5085 27.7665 22.5085ZM34.9194 16.3636H32.896V24H34.9194V21.0021H37.5295V24H39.538V16.3636H37.5295V19.3366H34.9194V16.3636ZM44.6314 24.1491C46.9482 24.1491 48.3899 22.5632 48.3899 20.2116C48.3899 17.8452 46.9482 16.2642 44.6314 16.2642C42.3146 16.2642 40.8729 17.8452 40.8729 20.2116C40.8729 22.5632 42.3146 24.1491 44.6314 24.1491ZM44.6413 22.5085C43.5724 22.5085 43.0256 21.5291 43.0256 20.1967C43.0256 18.8643 43.5724 17.88 44.6413 17.88C45.6903 17.88 46.2372 18.8643 46.2372 20.1967C46.2372 21.5291 45.6903 22.5085 44.6413 22.5085ZM49.767 24H53.5256C55.4347 24 56.4986 23.2195 56.4986 21.9169C56.4986 20.9126 55.7031 20.1172 54.331 20.0178C55.4247 19.8288 56.076 19.2521 56.076 18.4268C56.076 17.1044 54.9077 16.3636 53.0234 16.3636H49.767V24ZM51.7408 22.4141V20.7486H53.5256C54.1122 20.7486 54.4702 21.0817 54.4702 21.6236C54.4702 22.1158 54.1122 22.4141 53.5256 22.4141H51.7408ZM51.7408 19.5057V17.9844H53.0234C53.6797 17.9844 54.0824 18.2678 54.0824 18.7351C54.0824 19.2173 53.6996 19.5057 53.0682 19.5057H51.7408ZM59.8569 21.206V16.3636H57.8335V24H59.9364L62.6758 19.1428V24H64.6942V16.3636H62.6062L59.8569 21.206ZM65.6388 18.0291H68.0799V24H70.0984V18.0291H72.5593V16.3636H65.6388V18.0291ZM75.8667 18.7102V16.3636H73.8432V24H77.4526C79.476 24 80.6642 22.9411 80.6692 21.3651C80.6642 19.7592 79.476 18.7102 77.4526 18.7102H75.8667ZM75.8667 20.3757H77.4526C78.1635 20.3757 78.6657 20.7933 78.6756 21.38C78.6657 21.9368 78.1635 22.3345 77.4526 22.3345H75.8667V20.3757ZM84.7173 26.2372H86.7855V24H91.4538V26.2372H93.4723V22.3196H92.2891V16.3636H86.4325L86.2337 18.8594C86.1143 20.3608 85.9702 21.897 85.304 22.3196H84.7173V26.2372ZM87.4119 22.3196C87.8643 21.6087 88.0384 20.4901 88.1527 18.8594L88.2322 17.9943H90.2905V22.3196H87.4119ZM96.8841 24.1442C98.0126 24.1442 98.7434 23.652 99.1163 22.9411H99.176V24H101.184V18.8494C101.184 17.0298 99.6433 16.2642 97.943 16.2642C96.1135 16.2642 94.9103 17.1392 94.617 18.5312L96.5758 18.6903C96.72 18.1832 97.1724 17.8104 97.9331 17.8104C98.6539 17.8104 99.0666 18.1733 99.0666 18.7997V18.8295C99.0666 19.3217 98.5446 19.3864 97.2172 19.5156C95.7058 19.6548 94.3485 20.1619 94.3485 21.8672C94.3485 23.3786 95.4274 24.1442 96.8841 24.1442ZM97.4906 22.6825C96.8393 22.6825 96.372 22.3793 96.372 21.7976C96.372 21.201 96.8642 20.9077 97.6099 20.8033C98.0723 20.7386 98.8279 20.6293 99.0815 20.4602V21.2706C99.0815 22.071 98.4203 22.6825 97.4906 22.6825ZM104.851 16.3636H102.828V24H104.851V21.0021H107.461V24H109.47V16.3636H107.461V19.3366H104.851V16.3636ZM113.136 16.3636H111.113V24H113.136V21.0021H115.746V24H117.755V16.3636H115.746V19.3366H113.136V16.3636ZM121.421 18.7102V16.3636H119.398V24H123.007C125.031 24 126.219 22.9411 126.224 21.3651C126.219 19.7592 125.031 18.7102 123.007 18.7102H121.421ZM127.044 24H129.162V16.3636H127.044V24ZM121.421 20.3757H123.007C123.718 20.3757 124.22 20.7933 124.23 21.38C124.22 21.9368 123.718 22.3345 123.007 22.3345H121.421V20.3757ZM134.335 24.1491C136.224 24.1491 137.497 23.2294 137.795 21.8125L135.836 21.6832C135.623 22.2649 135.076 22.5682 134.37 22.5682C133.311 22.5682 132.64 21.8672 132.64 20.7287V20.7237H137.84V20.142C137.84 17.5469 136.269 16.2642 134.251 16.2642C132.003 16.2642 130.547 17.8601 130.547 20.2166C130.547 22.6378 131.983 24.1491 134.335 24.1491ZM132.64 19.4112C132.684 18.5412 133.346 17.8452 134.285 17.8452C135.205 17.8452 135.841 18.5014 135.846 19.4112H132.64Z" fill="#92929D"/>
</svg>
