<svg width="41" height="20" viewBox="0 0 41 20" fill="none" xmlns="http://www.w3.org/2000/svg">
<rect width="41" height="20" rx="5" fill="#FF5985"/>
<path d="M11.4347 6.72727H10.2486L12.8658 14H14.1335L16.7507 6.72727H15.5646L13.5405 12.6506H13.4588L11.4347 6.72727ZM17.6731 14L18.3407 12.0753H21.1816L21.8457 14H23.0105L20.3933 6.72727H19.1255L16.5083 14H17.6731ZM18.6603 11.152L19.7328 8.0483H19.7896L20.862 11.152H18.6603ZM29.7594 9.09233C29.5108 7.53693 28.2928 6.62784 26.7551 6.62784C24.873 6.62784 23.4846 8.03764 23.4846 10.3636C23.4846 12.6896 24.8659 14.0994 26.7551 14.0994C28.3532 14.0994 29.5215 13.098 29.7594 11.6598L28.6515 11.6562C28.4632 12.5866 27.682 13.098 26.7623 13.098C25.5158 13.098 24.5748 12.1428 24.5748 10.3636C24.5748 8.59872 25.5123 7.62926 26.7658 7.62926C27.6926 7.62926 28.4703 8.15128 28.6515 9.09233H29.7594Z" fill="#2F2F45"/>
</svg>
